<?xml version="1.0" encoding="UTF-8"?>
<svg version="1.1" viewBox="0 0 1600 1600" width="1280" height="1280" xmlns="http://www.w3.org/2000/svg">
<path transform="translate(305 139)" d="m0 0c0.695-0.00178 1.39-0.00355 2.11-0.00538 2.35-0.00477 4.7-0.00236 7.06-4.11e-5 1.7-0.00195 3.4-0.00434 5.11-0.00713 4.71-0.00642 9.42-0.00656 14.1-0.00572 5.11-1.69e-4 10.2-0.00607 15.3-0.0112 10.2-0.00934 20.3-0.0133 30.5-0.0155 12.2-0.00296 24.3-0.0117 36.5-0.0204 29.4-0.0209 58.8-0.0313 88.2-0.0401 9.74-0.00293 19.5-0.0063 29.2-0.00997 0.687-2.58e-4 1.37-5.17e-4 2.08-7.83e-4 2.78-0.00105 5.56-0.00209 8.34-0.00315 47.6-0.018 95.2-0.0333 143-0.0408 3.74-5.84e-4 7.48-0.00118 11.2-0.00178 0.742-1.18e-4 1.48-2.36e-4 2.25-3.58e-4 7.51-0.0012 15-0.00241 22.5-0.00363 1.51-2.45e-4 3.01-4.89e-4 4.52-7.32e-4 48.3-0.00778 96.7-0.0301 145-0.0627 34.7-0.0234 69.4-0.0449 104-0.052 0.715-1.47e-4 1.43-2.94e-4 2.17-4.46e-4 15.7-0.00319 31.4-0.00524 47.1-0.00623 6.32-4.15e-4 12.6-9.7e-4 19-0.00156 1.04-9.1e-5 1.04-9.1e-5 2.1-1.84e-4 22.2-0.00201 44.5-0.0162 66.7-0.0368 23-0.0212 46.1-0.0279 69.1-0.0181 13.3 0.0052 26.5-6.07e-4 39.8-0.0225 8.88-0.0136 17.8-0.0124 26.6 4.02e-4 5.05 0.00686 10.1 0.00769 15.1-0.00956 28.1-0.0901 55.5 0.521 82.4 9.77 3.3 1.1 6.63 2.05 9.97 3.01 2.82 0.908 5.34 2.13 7.95 3.51 1.76 0.929 3.55 1.81 5.34 2.67 6.83 3.29 13.4 6.87 19.8 10.9 0.708 0.433 1.42 0.865 2.15 1.31 1.7 1.07 3.34 2.22 4.98 3.38v2c0.706 0.236 1.41 0.472 2.14 0.715 9.53 4.29 17.7 13.9 25 21.2 0.734 0.725 1.47 1.45 2.23 2.2 3.44 3.46 6.29 6.62 8.65 10.9 0.987 1.01 1.99 2.01 3 3 1.26 1.66 2.49 3.35 3.69 5.06 0.623 0.878 1.25 1.76 1.89 2.66 1.43 2.28 1.43 2.28 1.43 4.28h2c3.65 6.31 6.93 12.8 10.1 19.3 1.42 2.88 2.85 5.67 4.51 8.42 4.06 6.81 5.43 15.2 7.38 22.8 0.852 3.33 0.852 3.33 1.99 5.89 1.35 3.54 1.93 7.16 2.54 10.9 0.189 1.05 0.189 1.05 0.381 2.13 2.24 13.4 2.2 27.1 2.18 40.7 0.00105 1.67 0.00253 3.34 0.0044 5.02 0.00387 4.57 0.00158 9.14-0.00178 13.7-0.00255 4.98 7.28e-4 9.96 0.00324 14.9 0.0036 8.72 0.00351 17.4 9.53e-4 26.2-0.00379 13-0.00185 25.9 0.00121 38.9 0.00496 21.8 0.00515 43.6 0.00242 65.4-8.28e-5 0.663-1.66e-4 1.33-2.51e-4 2.01-8.29e-5 0.664-1.66e-4 1.33-2.51e-4 2.01-0.00252 20.3-0.00317 40.5-0.00198 60.8 7.75e-5 1.36 1.55e-4 2.71 2.31e-4 4.07 3.1e-4 5.45 6.29e-4 10.9 9.6e-4 16.4 9.17e-4 15.2 0.00149 30.5 0.00179 45.7 1.36e-5 0.694 2.73e-5 1.39 4.14e-5 2.1 4.09e-4 22.1-7.17e-4 44.2-0.00289 66.3-7.02e-5 0.717-1.4e-4 1.43-2.13e-4 2.17-0.00114 11.6-0.00236 23.3-0.00359 34.9-0.00486 46.2-0.00463 92.4 2.31e-4 139 0.00122 11.6 0.00243 23.3 0.00357 34.9 1.06e-4 1.08 1.06e-4 1.08 2.13e-4 2.17 0.00216 22.1 0.00307 44.2 0.00264 66.3-2.04e-5 1.04-2.04e-5 1.04-4.12e-5 2.1-3.12e-4 15.2-9.46e-4 30.4-0.00187 45.6-3.29e-4 5.44-6.42e-4 10.9-9.51e-4 16.3-7.74e-5 1.35-1.56e-4 2.71-2.36e-4 4.06-0.00119 20.3-1.75e-4 40.5 0.00235 60.8 1.24e-4 0.997 1.24e-4 0.997 2.51e-4 2.01 8.27e-5 0.663 1.65e-4 1.33 2.51e-4 2.01 0.00275 22.3 0.00175 44.7-0.00353 67-0.00295 12.9-0.00311 25.8 6.46e-4 38.7 0.00223 8.59 8.68e-4 17.2-0.0035 25.8-0.00239 4.91-0.00316 9.81 4.06e-4 14.7 0.00321 4.45 0.00189 8.91-0.00318 13.4-0.00102 1.61-3.19e-4 3.22 0.00221 4.83 0.00316 2.17 2.77e-4 4.34-0.00424 6.51-1.02e-4 1.81-1.02e-4 1.81-2.05e-4 3.66-0.125 2.79-0.125 2.79-1.13 4.79-0.196 1.49-0.344 2.98-0.465 4.47-0.078 0.9-0.156 1.8-0.236 2.73-0.155 1.88-0.309 3.76-0.461 5.64-0.703 8.06-2.18 15.5-4.84 23.2-0.44 1.52-0.877 3.04-1.31 4.56-2.96 9.89-6.83 19.3-11.7 28.4-0.366 0.701-0.732 1.4-1.11 2.12-6.33 11.8-13.7 22.4-22.6 32.4-1.23 1.39-2.45 2.8-3.66 4.2-5.12 5.85-10.5 11.5-16.7 16.3h-2c-0.248 0.639-0.495 1.28-0.75 1.94-1.25 2.06-1.25 2.06-3.31 2.62-0.639 0.144-1.28 0.289-1.94 0.438-0.33 0.99-0.66 1.98-1 3-2.26 1.65-2.26 1.65-5.12 3.38-3.24 1.99-6.41 3.95-9.44 6.25-3.44 2.52-7.16 4.33-11 6.16-2.46 1.17-2.46 1.17-4.75 2.67-3.36 1.93-6.87 3.23-10.5 4.54-1.01 0.371-1.01 0.371-2.04 0.75-1.37 0.502-2.73 1-4.1 1.5-1.36 0.499-2.71 1.01-4.05 1.54-4.66 1.82-9.3 3.13-14.2 4.21-1.5 0.34-2.99 0.68-4.49 1.02-0.732 0.165-1.46 0.329-2.22 0.499-1.91 0.437-3.81 0.901-5.71 1.37-1.08 0.264-2.16 0.529-3.27 0.801-0.926 0.231-1.85 0.461-2.8 0.699-10.3 1.89-20.6 1.76-31 1.76-1.69 0.00306-3.38 0.00655-5.07 0.0104-4.64 0.0094-9.28 0.0127-13.9 0.0149-5.05 0.00354-10.1 0.0128-15.1 0.0213-8.85 0.0141-17.7 0.0246-26.5 0.0326-13.2 0.0119-26.3 0.0295-39.5 0.0481-24.9 0.0349-49.7 0.0631-74.6 0.089-2.74 0.00286-5.48 0.00572-8.23 0.00859-0.681 7.11e-4 -1.36 0.00142-2.06 0.00215-15.1 0.0158-30.2 0.0333-45.3 0.0512-6.22 0.00734-12.4 0.0147-18.7 0.022-0.687 8.08e-4 -1.37 0.00162-2.08 0.00245-39.4 0.0463-78.7 0.0904-118 0.13-1.47 0.00148-2.95 0.00296-4.42 0.00445-6.65 0.00669-13.3 0.0134-20 0.02-2.97 0.00297-5.93 0.00595-8.9 0.00893-1.48 0.00149-2.97 0.00298-4.45 0.00447-46.9 0.047-93.8 0.102-141 0.164-11.8 0.0155-23.6 0.031-35.4 0.0464-0.727 9.44e-4 -1.45 0.00189-2.2 0.00286-22.4 0.0291-44.9 0.0556-67.3 0.0797-0.705 7.56e-4 -1.41 0.00151-2.14 0.00229-15.5 0.0166-31 0.0325-46.4 0.048-5.54 0.00552-11.1 0.0111-16.6 0.0167-1.38 0.00139-2.76 0.00278-4.13 0.00417-21.9 0.0221-43.8 0.0501-65.7 0.0811-22.7 0.0321-45.4 0.0568-68.1 0.073-13.1 0.00955-26.2 0.0247-39.2 0.0479-8.75 0.015-17.5 0.0225-26.3 0.0242-4.98 0.00114-9.95 0.00533-14.9 0.0187-54.6 0.14-54.6 0.14-74.1-4.22-1.5-0.312-2.99-0.622-4.49-0.93-17.1-3.65-32.6-9.73-48.5-17.1v-2c-0.99-0.227-1.98-0.454-3-0.688-4.42-1.26-8.42-3.41-12-6.31v-2c-1.33-0.381-1.33-0.381-2.7-0.77-3.37-1.25-5.44-2.63-8.18-4.92l-2.61-2.16c-2.9-2.48-5.8-4.97-8.65-7.51-1.78-1.57-3.6-3.07-5.43-4.58-3.9-3.35-7.15-7.13-10.4-11.1-0.821-0.968-1.64-1.94-2.49-2.93-12.5-14.8-12.5-14.8-12.5-18.1h-2c-26.2-44.7-30.2-85.8-30.1-137 0.00256-4.83-7.33e-4 -9.66-0.00324-14.5-0.0036-8.45-0.00351-16.9-9.53e-4 -25.3 0.0038-12.6 0.00184-25.1-0.00121-37.7-0.00526-22.4-0.00481-44.9-0.00192-67.3 0.00252-19.6 0.00317-39.3 0.00198-58.9-7.64e-5 -1.3-1.53e-4 -2.61-2.31e-4 -3.95-3.11e-4 -5.3-6.3e-4 -10.6-9.6e-4 -15.9-9.11e-4 -14.8-0.00149-29.6-0.00179-44.4-1.36e-5 -0.674-2.73e-5 -1.35-4.14e-5 -2.04-4.09e-4 -21.5 7.16e-4 -42.9 0.00289-64.4 7.02e-5 -0.696 1.4e-4 -1.39 2.13e-4 -2.11 0.00114-11.3 0.00236-22.6 0.00359-33.9 0.00485-44.8 0.00463-89.6-2.31e-4 -134-0.00122-11.3-0.00243-22.6-0.00357-33.9-7.04e-5 -0.695-1.41e-4 -1.39-2.13e-4 -2.11-0.00216-21.4-0.00307-42.9-0.00264-64.3 1.36e-5 -0.674 2.72e-5 -1.35 4.12e-5 -2.04 3.27e-4 -15.5 0.00103-30.9 0.00199-46.4 3.21e-4 -5.29 6.34e-4 -10.6 9.43e-4 -15.9 1.19e-4 -1.95 1.19e-4 -1.95 2.4e-4 -3.95 0.00114-19.6-1.89e-4 -39.2-0.00272-58.9-0.00286-22.3-0.00213-44.7 0.00328-67 0.00293-12.5 0.00314-25-6.46e-4 -37.4-0.00225-8.35-8.24e-4 -16.7 0.0035-25.1 0.00236-4.75 0.00323-9.5-4.06e-4 -14.2-0.0115-16.4-0.0013-32.9 0.513-49.3 0.0304-1.09 0.0607-2.19 0.092-3.31 0.333-8.95 1.51-17.5 4.53-25.9 0.503-2.1 0.982-4.2 1.44-6.31 1.94-8.54 4.66-16.2 8.38-24.1 1.15-2.5 2.17-5.02 3.18-7.58 3.81-8.54 8.85-16.2 14-24 1.07-1.66 1.07-1.66 2.15-3.36 1.85-2.64 1.85-2.64 3.85-3.64 0.988-1.71 1.97-3.43 2.93-5.16 1.96-3.38 4.12-6.14 7.26-8.47 2.11-1.33 2.11-1.33 2.81-4.38 1.35-1.36 1.35-1.36 3.06-2.75 2.57-2.12 5.09-4.27 7.56-6.5 9.96-8.73 21.1-18 33.1-23.6 4.16-2.01 8.17-4.3 12.2-6.52 2.65-1.38 5.25-2.54 8.05-3.59 1.2-0.454 2.39-0.907 3.62-1.38 0.686-0.254 1.37-0.508 2.08-0.77 1.64-0.611 3.27-1.23 4.91-1.87 5.3-2.01 10.4-3.56 16-4.5 2.46-0.447 2.46-0.447 5.01-1.45 4.62-1.43 9.27-1.98 14.1-2.61 1.88-0.249 3.76-0.5 5.64-0.754 0.826-0.108 1.65-0.215 2.5-0.326 9.03-1.48 9.03-1.48 11.9-1.49z" fill="#3A71AE"/>
<path transform="translate(1e3 657)" d="m0 0c12-0.335 23.8 0.244 35.8 1.46 1.24 0.126 2.49 0.252 3.77 0.382 5.53 0.61 10.4 1.4 15.7 3.24 2.39 0.488 4.79 0.945 7.19 1.38 6.58 1.26 12.6 3.12 18.8 5.62 1.72 0.648 1.72 0.648 3.48 1.31 13.1 4.97 25.3 11.2 36.5 19.7 0.757 0.565 1.51 1.13 2.29 1.71 8.38 6.37 16 13.2 22.7 21.3 0.66 0.795 1.32 1.59 2 2.41 4.35 5.33 8.27 10.8 12 16.6 0.66 0.949 1.32 1.9 2 2.88 8.36 13.1 14.3 27.2 19.1 41.9 0.323 0.98 0.323 0.98 0.654 1.98 3.89 11.8 7.68 23.7 8.86 36.1 0.353 2.39 0.353 2.39 1.33 5.46 1.04 3.77 1.61 7.35 2.07 11.2 0.0836 0.696 0.167 1.39 0.253 2.11 0.263 2.21 0.519 4.42 0.774 6.62 0.175 1.46 0.35 2.93 0.525 4.39 1.43 12.1 2.55 24.1 2.96 36.3 0.0631 1.83 0.0631 1.83 0.127 3.69 0.429 13.4 0.476 26.7 0.481 40.1 0.00412 2.74 0.00965 5.48 0.015 8.22 0.0134 7.34 0.0196 14.7 0.024 22 0.00279 4.6 0.00703 9.19 0.0115 13.8 0.0121 12.8 0.0225 25.5 0.0259 38.3 2.2e-4 0.811 4.39e-4 1.62 6.65e-4 2.46 2.18e-4 0.813 4.37e-4 1.63 6.61e-4 2.46 4.43e-4 1.65 8.9e-4 3.29 0.00134 4.94 2.21e-4 0.816 4.43e-4 1.63 6.71e-4 2.47 0.00397 13.3 0.0215 26.6 0.0447 39.9 0.0237 13.7 0.0362 27.4 0.0373 41.1 9.15e-4 7.67 0.00662 15.3 0.0248 23 0.0154 6.51 0.0205 13 0.0123 19.5-0.0039 3.32-0.00136 6.64 0.0111 9.96 0.0127 3.6 0.00686 7.2-0.00358 10.8 0.00806 1.04 0.0161 2.09 0.0244 3.16-0.0493 7.26-0.799 13.2-5.7 18.9-0.887 0.763-1.77 1.53-2.69 2.31-0.5 0.455-1 0.91-1.52 1.38-4.74 4.2-7.92 4.74-14.1 4.77-1.15 0.00716-2.29 0.0143-3.47 0.0217-1.25 0.00269-2.51 0.00538-3.8 0.00815-1.34 0.00627-2.67 0.0129-4.01 0.0199-4.38 0.021-8.77 0.0314-13.1 0.0414-1.51 0.00405-3.02 0.00817-4.54 0.0124-7.1 0.019-14.2 0.0333-21.3 0.0416-8.19 0.00977-16.4 0.0361-24.6 0.0765-6.34 0.0302-12.7 0.045-19 0.0483-3.78 0.00234-7.56 0.0112-11.3 0.0365-3.56 0.0234-7.12 0.0275-10.7 0.0172-1.92-7.27e-4 -3.83 0.0183-5.75 0.0381-8.5-0.0509-14.9-1.31-21.5-6.76-7.27-8.89-8.41-15.8-8.36-27.2-1.49e-4 -1.05-2.98e-4 -2.1-4.51e-4 -3.18 6.94e-4 -3.51 0.00854-7.02 0.0163-10.5 0.00192-2.52 0.00338-5.04 0.00443-7.56 0.00316-5.43 0.00932-10.9 0.0181-16.3 0.0126-7.87 0.0186-15.7 0.0229-23.6 0.00707-12.8 0.0179-25.6 0.0317-38.4 0.00124-1.15 0.00124-1.15 0.00251-2.32 0.00674-6.2 0.0137-12.4 0.0206-18.6 0.00605-5.4 0.012-10.8 0.0179-16.2 8.28e-4 -0.76 0.00166-1.52 0.00251-2.3 0.0137-12.7 0.0235-25.5 0.0304-38.2 0.00445-7.83 0.0124-15.7 0.0251-23.5 0.00952-6.03 0.0138-12.1 0.0163-18.1 0.00185-2.45 0.00542-4.91 0.0109-7.36 0.0246-11.3-0.0117-22.6-0.487-34-0.0305-0.818-0.061-1.64-0.0924-2.48-0.285-5.82-1.28-11.3-2.53-17-0.265-1.35-0.525-2.7-0.781-4.05-0.237-1.22-0.474-2.44-0.719-3.7-0.356-1.85-0.356-1.85-0.719-3.73-0.729-3.28-1.67-6.35-2.78-9.52-0.223-0.727-0.446-1.45-0.676-2.2-4.1-13.2-11.3-25.1-20.8-35-1.5-1.78-1.5-1.78-1.5-3.78-0.773-0.371-0.773-0.371-1.56-0.75-3.21-1.65-6.31-3.45-9.44-5.25v-2c-0.99-0.268-1.98-0.536-3-0.812-4.88-1.4-9.66-3.14-14.3-5.21-7.94-3.32-15.1-3.48-23.6-3.29-1.92 0.0145-1.92 0.0145-3.88 0.0293-11.8 0.139-22.3 0.271-33.2 5.28-1.11 0.433-2.23 0.866-3.38 1.31-4.54 2.12-8.77 4.66-13.1 7.26-2.57 1.43-2.57 1.43-4.57 1.43-0.33 0.99-0.66 1.98-1 3-1.33 0.667-2.67 1.33-4 2-1.01 1.32-2.01 2.66-3 4h-2c-0.24 0.53-0.48 1.06-0.727 1.61-1.64 3.08-3.63 5.87-5.65 8.71-4.68 6.68-8.5 13.1-11.6 20.7-0.971 2.2-1.95 4.4-2.94 6.59-0.351 0.794-0.701 1.59-1.06 2.41-0.483 1.02-0.967 2.05-1.46 3.1-2.03 4.76-3.03 9.73-4.1 14.8-0.208 0.923-0.416 1.85-0.631 2.8-3.78 17.5-4.09 34.6-4.05 52.4-0.00111 2.6-0.00318 5.2-0.0061 7.8-0.00518 5.56-0.00376 11.1 0.00178 16.7 0.00827 8.8-0.00307 17.6-0.0172 26.4-0.0046 3.02-0.00905 6.04-0.0134 9.06-0.0011 0.754-0.0022 1.51-0.00333 2.29-0.0121 8.55-0.0197 17.1-0.0257 25.7-5.48e-4 0.781-0.0011 1.56-0.00166 2.37-0.00848 12.7-0.00511 25.4 8.15e-4 38 0.00562 13-0.00792 26.1-0.0376 39.1-0.0175 8.03-0.0192 16.1-3.55e-4 24.1 0.013 6.15 6.22e-5 12.3-0.0224 18.4-0.00505 2.52-0.00156 5.04 0.0111 7.55 0.0161 3.44 0.00146 6.88-0.0207 10.3 0.012 0.993 0.0241 1.99 0.0365 3.01-0.101 7.72-2.31 13.6-7.8 19.2-0.696 0.443-1.39 0.887-2.11 1.34-0.686 0.464-1.37 0.928-2.08 1.41-7.4 3.03-16.4 2.25-24.2 2.25-1.23 0.00496-2.45 0.00993-3.72 0.015-3.34 0.012-6.68 0.0195-10 0.024-2.09 0.00295-4.18 0.00705-6.28 0.0115-6.56 0.0136-13.1 0.0233-19.7 0.0272-7.55 0.00449-15.1 0.0221-22.6 0.051-5.85 0.0217-11.7 0.0317-17.6 0.033-3.49 0.00104-6.98 0.00688-10.5 0.0248-3.89 0.0196-7.78 0.0152-11.7 0.00869-1.72 0.0138-1.72 0.0138-3.47 0.0279-7.71-0.0403-15.1-0.757-21-6.38v-2h-2c-1.25-1.39-1.25-1.39-2.56-3.25-0.652-0.905-0.652-0.905-1.32-1.83-2.42-4.14-2.25-8.22-2.26-12.9-0.00314-0.71-0.00628-1.42-0.00952-2.15-0.00936-2.39-0.0116-4.78-0.014-7.18-0.00528-1.73-0.011-3.46-0.0171-5.18-0.0156-4.76-0.0249-9.52-0.0332-14.3-0.0101-5.13-0.0258-10.3-0.0408-15.4-0.0285-10.1-0.0516-20.2-0.0728-30.2-0.0174-8.22-0.0366-16.4-0.0572-24.7-0.00293-1.17-0.00586-2.34-0.00887-3.55-0.00596-2.38-0.0119-4.76-0.0179-7.14-0.0558-22.4-0.105-44.8-0.153-67.2-0.0407-19.1-0.087-38.1-0.137-57.2-0.0587-22.2-0.113-44.4-0.163-66.6-0.0053-2.39-0.0106-4.78-0.0159-7.17-0.00261-1.18-0.00522-2.35-0.00791-3.56-0.0184-8.15-0.0394-16.3-0.0616-24.5-0.0695-26-0.108-51.9-0.0612-77.9 0.00923-5.27 0.0129-10.5 0.0115-15.8-0.00168-7.75 0.0152-15.5 0.0772-23.3 0.0269-3.38 0.0425-6.75 0.0384-10.1-0.00222-3.58 0.0323-7.15 0.0774-10.7-0.00881-1.01-0.0176-2.03-0.0267-3.07 0.17-8.06 3.05-13.2 8.65-18.9 7.58-7.12 14.9-7.59 24.9-7.57 1.27-0.00847 2.54-0.0169 3.86-0.0257 3.48-0.0221 6.95-0.0252 10.4-0.0233 2.91 1.2e-4 5.82-0.00846 8.73-0.0168 6.87-0.0192 13.7-0.0221 20.6-0.0154 7.07 0.00664 14.1-0.0162 21.2-0.0533 6.09-0.0308 12.2-0.042 18.3-0.0382 3.63 0.00206 7.25-0.00328 10.9-0.0279 4.05-0.0266 8.1-0.0125 12.1 0.00511 1.78-0.0199 1.78-0.0199 3.6-0.0402 8.89 0.0894 15.2 2.3 22.2 7.73 7.7 9.4 6.42 20.5 6.31 32.1 0.0081 2.12 0.0198 4.24 0.0352 6.35 0.0297 5.15 0.0106 10.3-0.0352 15.5 2.48-0.495 2.48-0.495 5-1 0.103-0.598 0.206-1.2 0.312-1.81 0.803-2.55 1.78-3.35 3.69-5.19 1.09-1.24 2.17-2.49 3.25-3.75 3.42-3.93 7.03-7.61 10.8-11.2 0.492-0.5 0.985-1 1.49-1.52 2.7-2.65 5.61-5.05 8.51-7.48 0.784-0.66 1.57-1.32 2.38-2 5.9-4.5 12.1-8.42 18.6-12 0.675-0.389 1.35-0.779 2.05-1.18 14.2-8.12 29-13.4 45.1-16.2 2.74-0.282 2.74-0.282 3.85-1.58 17.8-3 35.8-3.55 53.8-4.08z" fill="#FCFDFF"/>
<path transform="translate(451 665)" d="m0 0c1.07-0.00571 2.14-0.0114 3.25-0.0173 1.76-0.00168 1.76-0.00168 3.55-0.00339 1.24-0.00496 2.48-0.00993 3.75-0.015 3.39-0.0121 6.79-0.0196 10.2-0.024 2.12-0.00293 4.24-0.00704 6.36-0.0115 6.64-0.0137 13.3-0.0233 19.9-0.0272 7.66-0.00448 15.3-0.022 23-0.051 5.93-0.0216 11.9-0.0317 17.8-0.033 3.54-0.00105 7.07-0.00692 10.6-0.0248 3.95-0.0196 7.89-0.0152 11.8-0.00869 1.17-0.00921 2.33-0.0184 3.53-0.0279 9.46 0.0487 15.1 2.03 22.2 8.48 5.96 6.31 6.95 12.6 6.93 21 0.00235 0.828 0.0047 1.66 0.00713 2.51 0.00669 2.79 0.00623 5.58 0.00582 8.38 0.0033 2.01 0.00702 4.03 0.0111 6.04 0.01 5.55 0.0137 11.1 0.0164 16.7 0.0039 5.98 0.0135 12 0.0222 17.9 0.0188 13.8 0.029 27.5 0.0375 41.3 0.00421 6.8 0.00943 13.6 0.0147 20.4 0.0179 23.3 0.0329 46.6 0.0403 69.8 4.75e-4 1.46 9.51e-4 2.92 0.00143 4.38 2.36e-4 0.725 4.73e-4 1.45 7.16e-4 2.2 0.0012 3.67 0.00242 7.34 0.00364 11 3.6e-4 1.09 3.6e-4 1.09 7.28e-4 2.21 0.00789 23.6 0.0313 47.3 0.0638 70.9 0.0343 25 0.054 50 0.0573 75 4.18e-4 2.74 8.97e-4 5.48 0.00142 8.23 1.23e-4 0.675 2.46e-4 1.35 3.73e-4 2.05 0.00233 10.9 0.018 21.7 0.0385 32.6 0.0202 10.9 0.0254 21.8 0.0162 32.8-0.00456 5.92-0.00259 11.8 0.0168 17.8 0.0176 5.42 0.0167 10.8 0.0011 16.3-0.00239 1.96 0.00201 3.92 0.0138 5.88 0.0151 2.66 0.00548 5.33-0.0102 7.99 0.0102 0.762 0.0204 1.52 0.031 2.31-0.0875 6.79-2.43 11.9-6.84 17-0.887 0.763-1.77 1.53-2.69 2.31-0.526 0.455-1.05 0.91-1.59 1.38-7.34 5.86-16.6 4.78-25.6 4.8-1.81 0.00986-1.81 0.00986-3.65 0.0199-3.97 0.0196-7.94 0.0314-11.9 0.0414-1.37 0.00405-2.75 0.00817-4.12 0.0124-6.45 0.019-12.9 0.0333-19.4 0.0416-7.43 0.00978-14.9 0.0361-22.3 0.0765-5.76 0.0302-11.5 0.045-17.3 0.0483-3.43 0.00234-6.86 0.0112-10.3 0.0365-3.83 0.0244-7.66 0.0234-11.5 0.0165-1.12 0.0128-2.25 0.0256-3.41 0.0388-8.1-0.0534-14.4-1.49-20.7-6.76-11.8-14-10.5-28.1-10.4-45.7-0.00115-1.9-0.00274-3.81-0.00473-5.71-0.00416-5.2-0.00212-10.4 9.86e-4 -15.6 0.00227-5.62-0.00123-11.2-0.00398-16.9-0.00444-11-0.00349-22-5.87e-4 -33 0.00226-8.94 0.00256-17.9 0.00148-26.8-1.53e-4 -1.27-3.06e-4 -2.55-4.64e-4 -3.86-3.2e-4 -2.59-6.44e-4 -5.18-9.73e-4 -7.76-0.00277-23.6 9.99e-5 -47.1 0.00534-70.7 0.00474-21.5 0.00432-43-4.61e-4 -64.5-0.00536-24.2-0.00746-48.3-0.00439-72.5 3.19e-4 -2.58 6.33e-4 -5.16 9.43e-4 -7.73 1.54e-4 -1.27 3.09e-4 -2.54 4.68e-4 -3.84 8.62e-4 -8.93-5.92e-4 -17.9-0.00295-26.8-0.00281-10.9-0.00204-21.8 0.00328-32.6 0.00262-5.55 0.00367-11.1 3.51e-4 -16.6-0.00299-5.09-0.00132-10.2 0.00398-15.3 0.00111-1.83 5.62e-4 -3.67-0.00188-5.5-0.0415-33.8-0.0415-33.8 8.06-42.5 6.34-5.75 11.7-9.05 20.4-9.08z" fill="#FCFDFF"/>
<path transform="translate(305 139)" d="m0 0c0.695-0.00178 1.39-0.00355 2.11-0.00538 2.35-0.00477 4.7-0.00236 7.06-4.11e-5 1.7-0.00195 3.4-0.00434 5.11-0.00713 4.71-0.00642 9.42-0.00656 14.1-0.00572 5.11-1.69e-4 10.2-0.00607 15.3-0.0112 10.2-0.00934 20.3-0.0133 30.5-0.0155 12.2-0.00296 24.3-0.0117 36.5-0.0204 29.4-0.0209 58.8-0.0313 88.2-0.0401 9.74-0.00293 19.5-0.0063 29.2-0.00997 0.687-2.58e-4 1.37-5.17e-4 2.08-7.83e-4 2.78-0.00105 5.56-0.00209 8.34-0.00315 47.6-0.018 95.2-0.0333 143-0.0408 3.74-5.84e-4 7.48-0.00118 11.2-0.00178 0.742-1.18e-4 1.48-2.36e-4 2.25-3.58e-4 7.51-0.0012 15-0.00241 22.5-0.00363 1.51-2.45e-4 3.01-4.89e-4 4.52-7.32e-4 48.3-0.00778 96.7-0.0301 145-0.0627 34.7-0.0234 69.4-0.0449 104-0.052 0.715-1.47e-4 1.43-2.94e-4 2.17-4.46e-4 15.7-0.00319 31.4-0.00524 47.1-0.00623 6.32-4.15e-4 12.6-9.7e-4 19-0.00156 1.04-9.1e-5 1.04-9.1e-5 2.1-1.84e-4 22.2-0.00201 44.5-0.0162 66.7-0.0368 23-0.0212 46.1-0.0279 69.1-0.0181 13.3 0.0052 26.5-6.07e-4 39.8-0.0225 8.88-0.0136 17.8-0.0124 26.6 4.02e-4 5.05 0.00686 10.1 0.00769 15.1-0.00956 28.1-0.0901 55.5 0.521 82.4 9.77 3.3 1.1 6.63 2.05 9.97 3.01 2.82 0.908 5.34 2.13 7.95 3.51 1.76 0.929 3.55 1.81 5.34 2.67 6.83 3.29 13.4 6.87 19.8 10.9 0.708 0.433 1.42 0.865 2.15 1.31 1.7 1.07 3.34 2.22 4.98 3.38v2c0.706 0.236 1.41 0.472 2.14 0.715 9.53 4.29 17.7 13.9 25 21.2 0.734 0.725 1.47 1.45 2.23 2.2 3.44 3.46 6.29 6.62 8.65 10.9 0.987 1.01 1.99 2.01 3 3 1.26 1.66 2.49 3.35 3.69 5.06 0.623 0.878 1.25 1.76 1.89 2.66 1.43 2.28 1.43 2.28 1.43 4.28h2c1.69 2.99 3.35 5.99 5 9 0.403 0.704 0.807 1.41 1.22 2.13 2.49 4.56 3.21 7.67 2.78 12.9h2c-0.0619 1.05-0.124 2.1-0.188 3.19-0.136 3.74-0.136 3.74 1.69 6.12 2.28 4.08 1.74 8.11 1.5 12.7h-4c-0.33-2.97-0.66-5.94-1-9h-4v-3h-4v-7h-3v-2h-2c-0.33-1.32-0.66-2.64-1-4-2.14 3.48-2.21 6.21-2.12 10.2 0.0271 1.62 0.0271 1.62 0.0547 3.27 0.0232 0.82 0.0464 1.64 0.0703 2.48h2v2c1.32 0.33 2.64 0.66 4 1v6h-3v-2c-1.42 0.0309-1.42 0.0309-2.88 0.0625-3.12-0.0625-3.12-0.0625-5.12-1.06v-14c-2.64-0.33-5.28-0.66-8-1-1.42-3.82-2.24-6.91-2-11h-2v-4h-5v-7h-2v-2h-4c-0.66-3.3-1.32-6.6-2-10-6.4-0.473-6.4-0.473-12 2v-5h-2v-2c-2.44 0.27-2.44 0.27-5 1-0.66 0.99-1.32 1.98-2 3-1.32-0.33-2.64-0.66-4-1v-2h-2v-2c-1.32-0.33-2.64-0.66-4-1-0.33-1.65-0.66-3.3-1-5h-2v-5h-2c-0.66-1.98-1.32-3.96-2-6-0.771 0.0838-1.54 0.168-2.34 0.254-1 0.102-2.01 0.204-3.04 0.309-0.998 0.104-2 0.209-3.02 0.316-2.6 0.121-2.6 0.121-4.6-0.879v-7h-2c-0.835-0.959-0.835-0.959-1.69-1.94-3.01-2.68-5.37-2.76-9.31-3.06-0.33-1.32-0.66-2.64-1-4h-2v-2c-0.626-0.0606-1.25-0.121-1.9-0.184-0.817-0.0838-1.63-0.168-2.48-0.254-0.812-0.0812-1.62-0.162-2.46-0.246-2.16-0.316-2.16-0.316-4.16-1.32-10-1.49-20.2-1.07-30.3-0.963-1.1 0.00846-2.21 0.0169-3.35 0.0256-1 0.0116-2 0.0232-3.03 0.0352-2.29-0.0977-2.29-0.0977-3.29-1.1-3-0.167-3-0.167-6 0-0.33 0.33-0.66 0.66-1 1-2.86 0.0733-5.7 0.0924-8.56 0.0625-0.806-0.00451-1.61-0.00902-2.44-0.0137-2-0.0118-4-0.0298-5.99-0.0488v-2h-34c1.32-1.32 2.64-2.64 4-4-6.6-0.33-13.2-0.66-20-1v4h11v1h-20c1.32-1.32 2.64-2.64 4-4-6.6-0.33-13.2-0.66-20-1v4h11v1h-37c1.32-1.32 2.64-2.64 4-4-3.3-0.33-6.6-0.66-10-1v4c0.66 0.33 1.32 0.66 2 1h-20c1.32-1.32 2.64-2.64 4-4-2.33-0.335-2.33-0.335-5 0-0.516 0.66-1.03 1.32-1.56 2-3.77 3.09-7.47 2.43-12.2 2.25-0.888-0.018-1.78-0.0361-2.69-0.0547-2.19-0.047-4.37-0.113-6.56-0.195 1.32-1.32 2.64-2.64 4-4-3.3-0.33-6.6-0.66-10-1v4c0.66 0.33 1.32 0.66 2 1h-651c1.32-1.32 2.64-2.64 4-4-10.6-0.33-21.1-0.66-32-1v4h23v1h-62c1.32-1.65 2.64-3.3 4-5h-50c-0.33 1.32-0.66 2.64-1 4-1.98-0.495-1.98-0.495-4-1 0.66-1.32 1.32-2.64 2-4-1.65 0.66-3.3 1.32-5 2v-2c-0.722 0.351-1.44 0.701-2.19 1.06-3.27 1.09-4.49 0.692-7.81-0.0625-3-0.0962-6-0.0589-9 0-0.33 0.66-0.66 1.32-1 2-6.62 0.125-6.62 0.125-10-1-1.85-0.204-3.7-0.365-5.55-0.5-1.09-0.0825-2.18-0.165-3.31-0.25-1.14-0.0825-2.28-0.165-3.46-0.25-2.25-0.164-4.49-0.331-6.74-0.5-0.997-0.0722-1.99-0.144-3.02-0.219-3.01-0.289-5.95-0.751-8.93-1.28v-2h5v-6c-2.97 0.33-5.94 0.66-9 1v-3c12.7-0.185 12.7-0.185 18 1-0.66-1.65-1.32-3.3-2-5 1.12-0.0606 2.24-0.121 3.39-0.184 1.47-0.0844 2.95-0.169 4.42-0.254 0.738-0.0393 1.48-0.0786 2.24-0.119 3.18-0.187 5.91-0.431 8.95-1.44-0.99-0.33-1.98-0.66-3-1v-2h2v-2h3v-2h-13c-0.33 0.66-0.66 1.32-1 2-1.65-1.65-3.3-3.3-5-5 3.45-1.15 6.11-1.13 9.76-1.13z" fill="#3A70AE"/>
<path transform="translate(508 405)" d="m0 0c2.26 0.0318 4.53 0.041 6.79 0.0469 11 0.0699 11 0.0699 12.2 1.23 1.75 0.331 3.51 0.657 5.27 0.95 7.35 1.23 14 2.82 20.7 6.05 0.953 0.443 1.91 0.887 2.89 1.34 16.9 8.14 16.9 8.14 23.1 14.7 1.24 1.09 2.49 2.17 3.75 3.25 6.44 5.64 11.8 11.2 16.6 18.3 1.66 2.48 1.66 2.48 3.69 4.83 2.22 2.9 3.63 5.77 5.11 9.1 0.498 1.1 0.995 2.21 1.51 3.34 1.17 2.7 2.29 5.41 3.37 8.16 0.327 0.748 0.655 1.5 0.992 2.27 4.21 11.4 5.38 23.6 5.38 35.7 0.00145 1.01 0.0029 2.03 0.00439 3.07-0.45 31-14.6 55.6-36.2 76.7-6.71 6.25-6.71 6.25-10.2 6.25-0.33 0.99-0.66 1.98-1 3-3.47 2.34-7.26 4.13-11 6-0.862 0.437-1.72 0.874-2.61 1.32-28 13.5-59.1 13.9-88.3 3.93-2.03-0.732-4.05-1.47-6.06-2.25v-2c-0.66-0.0825-1.32-0.165-2-0.25-12.1-3.02-23.8-12.7-32-21.8-1.39-1.33-1.39-1.33-2.81-2.69-1.96-2.07-3.12-3.7-4.19-6.31h-2c-1.52-2.05-2.9-4.09-4.25-6.25-0.402-0.637-0.804-1.27-1.22-1.93-15.5-25-20.6-53-14.5-81.9 3.3-14 9.69-28.8 19-40h2c0.66-1.65 1.32-3.3 2-5h2c0.406-0.878 0.406-0.878 0.82-1.77 1.17-2.21 2.44-3.95 4.05-5.85 0.492-0.59 0.985-1.18 1.49-1.79 1.76-1.71 3.42-2.55 5.63-3.59 0.598-0.598 1.2-1.2 1.81-1.81 16.9-16.9 45-24.8 68.2-24.5z" fill="#FCFDFF"/>
<path transform="translate(1346 148)" d="m0 0c2.45 0.758 4.92 1.44 7.4 2.13 3.59 1.09 6.83 2.46 10.1 4.23 1.76 0.929 3.55 1.81 5.34 2.67 6.83 3.29 13.4 6.87 19.8 10.9 0.708 0.433 1.42 0.865 2.15 1.31 1.7 1.07 3.34 2.22 4.98 3.38v2c0.706 0.236 1.41 0.472 2.14 0.715 9.53 4.29 17.7 13.9 25 21.2 0.734 0.725 1.47 1.45 2.23 2.2 3.44 3.46 6.29 6.62 8.65 10.9 0.987 1.01 1.99 2.01 3 3 1.26 1.66 2.49 3.35 3.69 5.06 0.934 1.32 0.934 1.32 1.89 2.66 1.43 2.28 1.43 2.28 1.43 4.28h2c9 15.9 9 15.9 9 19h-3c-0.66-1.65-1.32-3.3-2-5h-2v-3h-2v-3h-2v-5h-2c-0.247-0.639-0.495-1.28-0.75-1.94-1.22-2.55-1.22-2.55-5.25-3.06-0.99-4.45-0.99-4.45-2-9-2.31-0.33-4.62-0.66-7-1v-3c-0.99-0.33-1.98-0.66-3-1v-6h-5c0.495 8.91 0.495 8.91 1 18h4v4c0.645 0.224 1.29 0.449 1.95 0.68 2.05 1.32 2.05 1.32 2.66 3.7 0.0464 0.905 0.0928 1.81 0.141 2.74 0.0567 0.91 0.113 1.82 0.172 2.76 0.0387 1.05 0.0387 1.05 0.0781 2.12h-3v-7h-4c-0.66-1.65-1.32-3.3-2-5h-6c-0.495-7.43-0.495-7.43-1-15l-4-1c0.495-1.98 0.495-1.98 1-4h-5c-0.857-3.08-1.27-6.07-1.56-9.25-0.126-1.34-0.126-1.34-0.254-2.7-0.0606-0.675-0.121-1.35-0.184-2.05-1.65-0.33-3.3-0.66-5-1v-2c-0.908-0.248-1.82-0.495-2.75-0.75-3.37-1.3-4.99-2.47-7.25-5.25v-2c-8.43-1.72-8.43-1.72-17-2v-2h-7c-0.495-2.97-0.495-2.97-1-6-1.32-0.33-2.64-0.66-4-1v-2c-2.64-0.66-5.28-1.32-8-2v-3c1.65-0.33 3.3-0.66 5-1-1.65-0.33-3.3-0.66-5-1v-4h-6v9c-7.51 0.945-14.5 0.945-22 0v-2h-2v-4h-5v-14c-3.87-0.968-7.04-1.08-11-1v2c2.97 0.33 5.94 0.66 9 1v2h-9v2c2.97 0.33 5.94 0.66 9 1v2c-10.6 0.185-10.6 0.185-15-1 0.186-0.598 0.371-1.2 0.562-1.81 0.658-2.35 0.658-2.35-0.562-5.19h-4c0.33-1.32 0.66-2.64 1-4h3c12.4-6.18 34.9 2.57 47.2 6.43z" fill="#3A71AF"/>
<path transform="translate(1475,360)" d="m0 0h1v870h-1v-870z" fill="#000002"/>
<path transform="translate(653,697)" d="m0 0h3c0.049 0.699 0.098 1.4 0.148 2.12 0.0748 0.91 0.15 1.82 0.227 2.76 0.0696 0.905 0.139 1.81 0.211 2.74 0.21 2.56 0.21 2.56 2.41 4.38 0.227 2.15 0.227 2.15 0.195 4.79-0.00967 1.41-0.00967 1.41-0.0195 2.85-0.0168 0.985-0.0335 1.97-0.0508 2.98-0.00902 0.993-0.018 1.99-0.0273 3.01-0.0236 2.46-0.0565 4.91-0.0977 7.37-5.75 0.125-5.75 0.125-8-1v-16h2v-2h-2c-0.0541-1.77-0.0928-3.54-0.125-5.31-0.0232-0.986-0.0464-1.97-0.0703-2.99 0.195-2.7 0.195-2.7 2.2-5.7z" fill="#3B72AF"/>
<path transform="translate(1008,1173)" d="m0 0h3v4h2c0.315 0.987 0.629 1.97 0.953 2.99 0.432 1.29 0.864 2.59 1.3 3.88 0.205 0.651 0.41 1.3 0.621 1.97 1.32 3.9 1.32 3.9 4.3 6.6 0.603 0.183 1.21 0.366 1.83 0.555-0.33 1.32-0.66 2.64-1 4 0.99 0.66 1.98 1.32 3 2-0.33 1.65-0.66 3.3-1 5h-6v-5h-4v-13h-3v-2h-2v-11z" fill="#3B72AF"/>
<path transform="translate(415,687)" d="m0 0c2.98 1.49 3.66 2.95 5 6-0.0795 1.95-0.0795 1.95-0.398 4.13-0.599 4.63-0.816 9.18-0.918 13.8-0.0208 0.809-0.0416 1.62-0.063 2.45-0.0646 2.55-0.124 5.09-0.183 7.64-0.0433 1.74-0.0869 3.48-0.131 5.22-0.106 4.24-0.208 8.48-0.307 12.7h-2c-0.31-7.24-0.613-14.5-0.909-21.7-0.102-2.47-0.206-4.93-0.312-7.4-0.151-3.54-0.296-7.07-0.439-10.6-0.0489-1.11-0.0978-2.22-0.148-3.36-0.0401-1.02-0.0802-2.04-0.122-3.09-0.0378-0.904-0.0755-1.81-0.114-2.74 0.0443-2.06 0.0443-2.06 1.04-3.06z" fill="#3B72AF"/>
<path transform="translate(435,168)" d="m0 0h26c-0.66 1.32-1.32 2.64-2 4h-24v-4z" fill="#3B72AF"/>
<path transform="translate(651,1130)" d="m0 0h6v3h2v10c-5.75 0.125-5.75 0.125-8-1v-12z" fill="#3B72AF"/>
<path transform="translate(805,1203)" d="m0 0c-0.33 0.99-0.66 1.98-1 3-0.599-0.0685-1.2-0.137-1.81-0.208-6.27-0.678-12.5-0.993-18.8-1.11-0.962-0.0208-1.92-0.0416-2.92-0.063-3.04-0.0647-6.07-0.124-9.11-0.183-2.07-0.0433-4.15-0.0869-6.22-0.131-5.05-0.106-10.1-0.208-15.2-0.307v-1c5.9-0.169 11.8-0.33 17.7-0.482 2-0.053 4.01-0.108 6.01-0.166 21.4-0.612 21.4-0.612 31.3 0.648z" fill="#3B72AF"/>
<path transform="translate(1147,1203)" d="m0 0h36c-0.33 0.66-0.66 1.32-1 2-11.5 2.3-23.5 0.344-35-1v-1z" fill="#3B72AF"/>
<path transform="translate(418,671)" d="m0 0c0.99 0.33 1.98 0.66 3 1 2.64-0.394 2.64-0.394 5-1v2h-2c-0.144 0.763-0.289 1.53-0.438 2.31-0.562 2.69-0.562 2.69-1.56 5.69-0.804 0.124-1.61 0.247-2.44 0.375-0.846 0.206-1.69 0.413-2.56 0.625l-1 2v-4h4c0.33-1.32 0.66-2.64 1-4-1.98 0.348-1.98 0.348-4 1l-1 2c-0.33-1.98-0.66-3.96-1-6 0.99-0.66 1.98-1.32 3-2z" fill="#3B72AF"/>
<path transform="translate(998,962)" d="m0 0h6c1.35 2.71 1.07 5.01 1 8-2 0.0425-4 0.0408-6 0-1-1-1-1-1.06-4.56 0.0206-1.13 0.0412-2.27 0.0625-3.44z" fill="#3B72AF"/>
<path transform="translate(1217,168)" d="m0 0h14c-0.66 1.32-1.32 2.64-2 4h-12v-4z" fill="#3B72AF"/>
<path transform="translate(1192,168)" d="m0 0h14c-0.66 1.32-1.32 2.64-2 4h-12v-4z" fill="#3B72AF"/>
<path transform="translate(997,977)" d="m0 0h6v8h-6v-8z" fill="#3B72AF"/>
<path transform="translate(1199,812)" d="m0 0c0.99 0.33 1.98 0.66 3 1 1.67 5.09 2.43 9.61 2 15-0.66 0.66-1.32 1.32-2 2-1.46-5.99-2.42-11.9-3-18z" fill="#3B72AF"/>
<path transform="translate(474,168)" d="m0 0h11c-0.66 1.32-1.32 2.64-2 4h-9v-4z" fill="#3B72AF"/>
<path transform="translate(631,485)" d="m0 0h2c0.33 4.62 0.66 9.24 1 14h-2v-2h-2c0.33-3.96 0.66-7.92 1-12z" fill="#3B72AF"/>
<path transform="translate(448,622)" d="m0 0h6v6h-6v-6z" fill="#3B72AF"/>
<path transform="translate(388,466)" d="m0 0h6v6h-6v-6z" fill="#3B72AF"/>
<path transform="translate(1160,168)" d="m0 0h11c-1.48 1.98-1.48 1.98-3 4-0.578-0.186-1.15-0.371-1.75-0.562-2.46-0.478-3.89-0.195-6.25 0.562v-4z" fill="#3B72AF"/>
<path transform="translate(1112,168)" d="m0 0h11c-1.48 1.98-1.48 1.98-3 4-0.578-0.186-1.15-0.371-1.75-0.562-2.46-0.478-3.89-0.195-6.25 0.562v-4z" fill="#3B72AF"/>
<path transform="translate(653,681)" d="m0 0h6c-0.33 1.98-0.66 3.96-1 6h-5v-6z" fill="#3B72AF"/>
<path transform="translate(1173,168)" d="m0 0h10c-1.48 1.98-1.48 1.98-3 4-3.69 0.25-3.69 0.25-7 0v-4z" fill="#3B72AF"/>
<path transform="translate(1206,849)" d="m0 0h1c0.33 5.61 0.66 11.2 1 17h-2c-0.893-5.94-0.97-11.1 0-17z" fill="#3B72AF"/>
<path transform="translate(1061,1194)" d="m0 0c5.54-0.369 5.54-0.369 7.88 1.5 0.371 0.495 0.743 0.99 1.12 1.5-0.33 0.33-0.66 0.66-1 1-2.54-0.0909-5.04-0.237-7.56-0.438-0.711-0.0522-1.42-0.104-2.15-0.158-1.76-0.13-3.52-0.267-5.28-0.404v-1c3.46-0.495 3.46-0.495 7-1v-1z" fill="#3B72AF"/>
<path transform="translate(465,1193)" d="m0 0c0.66 0.33 1.32 0.66 2 1v2c1.32 0.33 2.64 0.66 4 1-5.87 1.15-11.1 0.773-17 0v-1c1.07-0.124 2.14-0.247 3.25-0.375 3.19-0.531 4.97-1.19 7.75-2.62z" fill="#3B72AF"/>
<path transform="translate(1097,168)" d="m0 0h9c-1.12 2-1.12 2-3 4-3.19 0.25-3.19 0.25-6 0v-4z" fill="#3B72AF"/>
<path transform="translate(1210,1161)" d="m0 0h2c0.027 1.62 0.0464 3.25 0.0625 4.88 0.0116 0.905 0.0232 1.81 0.0352 2.74-0.0977 2.38-0.0977 2.38-1.1 4.38h-2c-0.0816-4.16 0.0175-7.95 1-12z" fill="#3B72AF"/>
<path transform="translate(506,634)" d="m0 0h8c-1.06 2-1.06 2-3 4-3.69 0.25-3.69 0.25-7 0 0.66-0.33 1.32-0.66 2-1v-3z" fill="#3B72AF"/>
<path transform="translate(632,537)" d="m0 0c1.19 1.5 1.19 1.5 2 4-0.729 2.79-1.82 5.38-3 8h-1c-0.054-1.62-0.0928-3.25-0.125-4.88-0.0232-0.905-0.0464-1.81-0.0703-2.74 0.195-2.38 0.195-2.38 2.2-4.38z" fill="#3B72AF"/>
<path transform="translate(1474,1290)" d="m0 0h1v6h-1v-6z" fill="#000002"/>
<path transform="translate(296,1459)" d="m0 0 2 1z" fill="#000002"/>
</svg>
